<svg version="1.1" id="Layer_1" xmlns="http://www.w3.org/2000/svg" xmlns:xlink="http://www.w3.org/1999/xlink" x="0px" y="0px"
	 width="100%" viewBox="0 0 196 213" enable-background="new 0 0 196 213" xml:space="preserve">
<path fill="#FFFEFD" opacity="1.000000" stroke="none" 
	d="
M124.000000,214.000000 
	C82.666672,214.000000 41.833340,214.000000 1.000005,214.000000 
	C1.000004,143.000000 1.000004,72.000015 1.000002,1.000015 
	C66.333321,1.000010 131.666641,1.000010 196.999969,1.000005 
	C196.999985,71.999985 196.999985,142.999969 197.000000,213.999969 
	C172.833328,214.000000 148.666672,214.000000 124.000000,214.000000 
M142.191330,138.966644 
	C117.158852,148.253433 92.126366,157.540222 67.160637,165.912613 
	C67.135437,147.596970 67.110237,129.281311 67.562607,110.510094 
	C86.046829,82.573555 104.531052,54.637020 123.338066,26.212629 
	C111.327950,22.772789 99.942955,19.759256 88.745575,16.161760 
	C85.153587,15.007727 83.365967,15.839291 81.263527,18.558807 
	C68.453262,35.129025 55.463806,51.560600 42.629490,68.112373 
	C38.385586,73.585518 34.424213,79.277733 30.119307,85.817558 
	C30.093523,116.277260 30.034237,146.737076 30.129841,177.196396 
	C30.135258,178.921555 30.905998,181.372086 32.175270,182.251816 
	C43.633118,190.193192 55.281944,197.859009 67.594086,205.898956 
	C67.921913,205.857254 68.272095,205.876358 68.574417,205.765259 
	C104.472687,192.571838 140.370850,179.378098 176.245438,166.120590 
	C177.310791,165.726883 178.126541,164.657684 179.523132,163.254196 
	C179.550781,141.798416 179.624527,120.342361 179.499146,98.887459 
	C179.491058,97.503487 178.235016,95.272934 177.073166,94.882164 
	C165.923309,91.132141 154.668808,87.693291 142.930008,84.003639 
	C142.930008,102.644012 142.930008,120.753769 142.191330,138.966644 
z"/>
<path fill="#F59521" opacity="1.000000" stroke="none" 
	d="
M30.333664,84.869781 
	C34.424213,79.277733 38.385586,73.585518 42.629490,68.112373 
	C55.463806,51.560600 68.453262,35.129025 81.263527,18.558807 
	C83.365967,15.839291 85.153587,15.007727 88.745575,16.161760 
	C99.942955,19.759256 111.327950,22.772789 123.338066,26.212629 
	C104.531052,54.637020 86.046829,82.573555 67.147369,110.451416 
	C62.919464,107.525917 59.193672,104.533760 55.276119,101.818237 
	C47.015175,96.091995 38.653820,90.510605 30.333664,84.869781 
z"/>
<path fill="#AB0D19" opacity="1.000000" stroke="none" 
	d="
M179.058670,163.903442 
	C178.126541,164.657684 177.310791,165.726883 176.245438,166.120590 
	C140.370850,179.378098 104.472687,192.571838 68.574417,205.765259 
	C68.272095,205.876358 67.921913,205.857254 67.306290,205.318329 
	C67.043625,192.100815 67.068748,179.463913 67.093887,166.827026 
	C92.126366,157.540222 117.158852,148.253433 142.707626,139.232193 
	C149.236420,143.838303 155.161987,148.306335 161.286514,152.482605 
	C167.102280,156.448349 173.126251,160.108765 179.058670,163.903442 
z"/>
<path fill="#E4532A" opacity="1.000000" stroke="none" 
	d="
M67.127258,166.369812 
	C67.068748,179.463913 67.043625,192.100815 66.946632,205.171692 
	C55.281944,197.859009 43.633118,190.193192 32.175270,182.251816 
	C30.905998,181.372086 30.135258,178.921555 30.129841,177.196396 
	C30.034237,146.737076 30.093523,116.277260 30.226486,85.343674 
	C38.653820,90.510605 47.015175,96.091995 55.276119,101.818237 
	C59.193672,104.533760 62.919464,107.525917 66.908585,110.679207 
	C67.110237,129.281311 67.135437,147.596970 67.127258,166.369812 
z"/>
<path fill="#E2361B" opacity="1.000000" stroke="none" 
	d="
M179.290894,163.578827 
	C173.126251,160.108765 167.102280,156.448349 161.286514,152.482605 
	C155.161987,148.306335 149.236420,143.838303 143.076965,139.180634 
	C142.930008,120.753769 142.930008,102.644012 142.930008,84.003639 
	C154.668808,87.693291 165.923309,91.132141 177.073166,94.882164 
	C178.235016,95.272934 179.491058,97.503487 179.499146,98.887459 
	C179.624527,120.342361 179.550781,141.798416 179.290894,163.578827 
z"/>
</svg>